<svg xmlns="http://www.w3.org/2000/svg" viewBox="0 0 48 48" id="Recommendations">
  <path fill-rule="evenodd" d="M24 0C10.751 0 0 10.751 0 24s10.751 24 24 24 24-10.751 24-24S37.249 0 24 0zm0 1c12.708 0 23 10.291 23 23S36.708 47 24 47 1 36.709 1 24 11.292 1 24 1zm2.422 9.998a.5.5 0 0 0-.5.5V14.885c0 .389-.229.892-.645 1.455-.415.563-.996 1.171-1.591 1.803-.952 1.01-1.974 2.067-2.35 3.271h-2.813v-3.916a.5.5 0 0 0-.5-.5H11.5a.5.5 0 0 0-.5.5V34.5a.5.5 0 0 0 .5.5h6.523a.5.5 0 0 0 .5-.5v-2.162a.5.5 0 0 0 .26.058h2.158l-.007-.017-.018-.04c.055.135.122.26.197.376h.002c.08.121.17.23.262.326l.004.01a2.18 2.18 0 0 0 1.105.603c.013 0 .026.01.04.012.083.01.219.04.398.04H33.89c.03 0 .059 0 .088-.01h1.455c.543 0 1.022-.287 1.341-.694.32-.408.5-.942.5-1.522 0-.53-.157-1.018-.427-1.41.764-.325 1.289-1.142 1.289-2.06 0-.553-.193-1.067-.51-1.463A2.22 2.22 0 0 0 39 24.494c0-.706-.336-1.335-.85-1.742.513-.405.85-1.026.85-1.729 0-1.216-.99-2.212-2.203-2.212h-4.358c-.494 0-.946.169-1.314.447a7.104 7.104 0 0 0-.752-2.17v-2.473c0-2.015-1.748-3.615-3.857-3.615h-.094v-.002zm.5 1.156c1.376.204 2.451 1.168 2.451 2.461v2.545c0 .031.002.062.008.092l.014.07c.01.054.029.107.056.155.89 1.568 1.036 3.723.36 5.486-.677 1.763-2.003 2.793-3.387 2.793h-4.746c-.676-.01-.676 1.01 0 1h4.746c1.175 0 2.262-.542 3.105-1.451.142.364.378.675.676.916a2.305 2.305 0 0 0-.832 1.79c0 .674.286 1.287.736 1.7a1.97 1.97 0 0 0-.238.25 2.46 2.46 0 0 0-.498 1.521c0 .448.11.867.305 1.223h-6.754c-.049 0-.139-.017-.256-.031a1.04 1.04 0 0 1-.398-.172h-.002a1.194 1.194 0 0 1-.428-.53.403.403 0 0 0-.018-.036l-.13-.256a.5.5 0 0 0-.446-.272h-2.513v-.012a.453.453 0 0 0-.21.057v-9.039h2.659c.079.623 1 .561.996-.066 0-.999 1.054-2.265 2.236-3.52.591-.627 1.194-1.253 1.668-1.894.364-.493.525-1.03.645-1.575.198-.463.102-.246.164-.386l.03-.088v-2.73zM12 17.998h5.523V34H12V17.998zm20.44 1.813h4.357c.674 0 1.203.53 1.203 1.212 0 .683-.53 1.215-1.203 1.215h-4.358a1.196 1.196 0 0 1-1.203-1.215c0-.683.53-1.212 1.203-1.212zm-.89 3.47h5.272c.655 0 1.178.528 1.178 1.215s-.523 1.215-1.178 1.215h-5.271c-.655 0-1.178-.528-1.178-1.215s.523-1.215 1.178-1.215zm-.167 3.516h4.744c.532 0 1.01.501 1.01 1.215 0 .713-.478 1.215-1.01 1.215h-4.744c-.532 0-1.01-.502-1.01-1.215 0-.714.478-1.215 1.01-1.215zM14.762 29.02c-.601 0-1.088.491-1.088 1.096 0 .605.487 1.095 1.088 1.096.6 0 1.088-.491 1.088-1.096 0-.605-.487-1.095-1.088-1.096zm16.453 1.249h4.219c.2 0 .388.096.554.308.166.212.287.535.287.904 0 .37-.12.694-.287.907-.166.212-.354.308-.554.308h-4.22c-.2 0-.388-.096-.554-.308a1.493 1.493 0 0 1-.287-.907c0-.37.121-.692.287-.904.166-.212.355-.308.555-.308z" color="#000" font-family="sans-serif" font-weight="400" overflow="visible" style="line-height:normal;text-indent:0;text-align:start;text-decoration-line:none;text-decoration-style:solid;text-decoration-color:#000;text-transform:none;block-progression:tb;isolation:auto;mix-blend-mode:normal" fill="#d8a353" class="color000000 svgShape"></path>
</svg>
