<svg xmlns="http://www.w3.org/2000/svg" viewBox="0 0 48 48" id="Premium">
  <path fill-rule="evenodd" d="M24 0C10.751 0 0 10.751 0 24s10.751 24 24 24 24-10.751 24-24S37.249 0 24 0zm0 1c12.708 0 23 10.291 23 23S36.708 47 24 47 1 36.709 1 24 11.292 1 24 1zM13 11v25h9.998v-1H14V12h14v3.504a.5.5 0 0 0 .5.5H32v9.574h1V15.536h-.002a.5.5 0 0 0-.144-.386l-4-4a.5.5 0 0 0-.362-.146.5.5 0 0 0-.148.023V11H13zm16 1.71 2.293 2.294H29V12.71zm-13.031 1.292v1H27v-1H15.969zm.084 3.002v1H30v-1H16.053zm-.053 3v1h14v-1H16zm0 3v1h14v-1H16zm0 3v1h14v-1H16zm15.361.498a.5.5 0 0 0-.5.5v1.539a.5.5 0 0 0 0 .01c0 .08-.066.266-.242.502-.175.235-.436.51-.71.799-.395.414-.846.858-1.075 1.406H28V29.74a.5.5 0 0 0-.5-.5h-3a.5.5 0 0 0-.5.5v7.762a.5.5 0 0 0 .5.5h3a.5.5 0 0 0 .5-.5v-.688h.678l-.08-.154-.018-.037c.032.078.072.149.115.215a.5.5 0 0 0 .002 0c.047.07.098.133.15.187a.5.5 0 0 0 .007.01 1.297 1.297 0 0 0 .4.272c.08.034.162.062.246.078a.5.5 0 0 0 .04.01c.025 0 .098.021.214.021h5.043a.5.5 0 0 0 .084-.012h.625c.682 0 1.117-.638 1.117-1.283 0-.194-.05-.38-.123-.557.311-.238.52-.61.52-1.027 0-.208-.063-.403-.15-.584.322-.235.546-.597.546-1.021 0-.303-.122-.575-.3-.797.177-.22.3-.488.3-.79a1.29 1.29 0 0 0-1.283-1.28h-2.004c-.148 0-.289.029-.422.076a3.458 3.458 0 0 0-.258-.63v-1.087c0-1.08-.94-1.922-2.043-1.922h-.045zm.5 1.172c.334.157.588.408.588.754v1.162a.5.5 0 0 0 .008.092l.008.03a.5.5 0 0 0 .056.157c.364.636.429 1.547.149 2.272-.28.724-.801 1.101-1.307 1.101H29.18a.5.5 0 1 0 0 1h2.183c.513 0 .986-.197 1.38-.523h.001c-.18.228-.295.515-.295.82 0 .285.106.549.264.77-.164.231-.264.519-.264.814 0 .099.027.193.047.29h-2.742c.006 0-.035 0-.06-.01-.017 0-.03-.01-.042-.014-.018-.01-.035-.017-.048-.026a.394.394 0 0 1-.073-.072.307.307 0 0 1-.027-.049.5.5 0 0 0-.018-.037l-.06-.117a.5.5 0 0 0-.444-.27H28v-3.562h.775a.5.5 0 0 0 .905-.299c0-.288.411-.85.953-1.42.27-.285.555-.576.789-.89.148-.2.199-.457.28-.698a.5.5 0 0 0 .16-.361v-.914zM16 29.004v1h7.11v-1H16zm9 1.236h2v6.762h-2V30.24zm9.129.828h2.004a.27.27 0 0 1 .283.282.272.272 0 0 1-.283.283h-2.004a.272.272 0 0 1-.283-.283.27.27 0 0 1 .283-.282zm-.408 1.584h2.424c.155 0 .271.114.271.284 0 .168-.116.283-.271.283H33.72c-.155 0-.272-.115-.272-.283 0-.17.117-.284.272-.284zm-.076 1.606h2.181c.082 0 .194.088.194.283 0 .195-.112.281-.194.281h-2.181c-.083 0-.196-.086-.196-.281 0-.195.113-.283.196-.283zm-7.68.744a.5.5 0 0 0-.465.5.5.5 0 0 0 .5.5.5.5 0 0 0 .5-.5.5.5 0 0 0-.5-.5.5.5 0 0 0-.035 0zm7.601.84h1.94c.001 0 .117.06.117.283 0 .222-.116.283-.117.283h-1.94c-.001 0-.117-.06-.117-.283 0-.222.116-.283.117-.283z" color="#000" font-family="sans-serif" font-weight="400" overflow="visible" style="line-height:normal;text-indent:0;text-align:start;text-decoration-line:none;text-decoration-style:solid;text-decoration-color:#000;text-transform:none;block-progression:tb;isolation:auto;mix-blend-mode:normal" fill="#d8a353" class="color000000 svgShape"></path>
</svg>
