<svg xmlns="http://www.w3.org/2000/svg" viewBox="0 0 48 48" id="Company">
  <path d="M24 0C10.751 0 0 10.751 0 24s10.751 24 24 24 24-10.751 24-24S37.249 0 24 0zm0 1c12.708 0 23 10.291 23 23S36.708 47 24 47 1 36.709 1 24 11.292 1 24 1zm-.04 8.396a3.403 3.403 0 0 0-2.269.997c-.087.01-.176.01-.263.025a3.406 3.406 0 0 0-1.926 1.084.5.5 0 0 0-.234.416.5.5 0 0 0 0 .012.5.5 0 0 0 0 .013.5.5 0 0 0 .197.397c.692.73 1.16 1.67 1.379 2.662h-.38a.5.5 0 1 0 0 1 .5.5 0 1 0 0 1 .5.5 0 0 0-.132.982c-.216.424-.47.814-.783 1.188-.832.994-2 1.958-3.078 3.605-2.21 3.38-1.996 8.624 1.097 11.62 2.908 2.967 7.815 3.452 11.268 1.175 3.58-2.224 5.121-7.032 3.549-10.937-.962-2.65-3.246-4.295-4.545-5.996a7.06 7.06 0 0 1-.485-.729.5.5 0 0 0-.27-.908.5.5 0 0 0-.023-1 .5.5 0 1 0 0-1h-.125c.204-.782.643-1.683 1.471-2.768a.5.5 0 0 0 .053-.086.501.499 60 0 0 .184-.773c-.426-.53-.99-.91-1.608-1.113a3.393 3.393 0 0 0-.875-.16 3.396 3.396 0 0 0-2.201-.706zm.042.99v.003c.256-.011.51.029.76.101a.502.5 60 0 0 .593.688c.188-.051.378-.073.567-.078a.5.5 0 0 0 .174 0c.54.025 1.06.229 1.472.591-.926 1.227-1.465 2.315-1.675 3.307H21.87a6.657 6.657 0 0 0-1.428-3.037 2.389 2.389 0 0 1 2.797-.274.5.5 0 1 0 .504-.863 3.409 3.409 0 0 0-.549-.258 2.39 2.39 0 0 1 .807-.18zm-7.035 5.141a2.713 2.713 0 0 0-1.781.772c-.058.01-.116.011-.172.017a2.722 2.722 0 0 0-1.528.858.5.5 0 0 0-.222.41v.02a.5.5 0 0 0 .19.396c.513.548.856 1.256 1.017 2.002H14.248c-.639.045-.611.992.03 1h-.03c-.599.033-.645.898-.053.994a4.335 4.335 0 0 1-.69 1.1c-.626.753-1.527 1.505-2.36 2.787-1.723 2.65-1.558 6.73.855 9.082 1.808 1.855 4.597 2.466 7.018 1.732a9.69 9.69 0 0 1-1.178-.787c-1.846.256-3.82-.3-5.13-1.646l-.009-.01c-2.005-1.95-2.161-5.606-.719-7.826.75-1.154 1.582-1.84 2.293-2.694a5.247 5.247 0 0 0 .963-1.732h.563c.244-.357.489-.7.732-1 .3-.37.59-.698.871-1h-1.9a5.29 5.29 0 0 0-1.057-2.363 1.693 1.693 0 0 1 1.912-.13c.576.338 1.082-.525.506-.863-.055-.032-.113-.052-.17-.08.24-.056.487-.053.729 0-.06.37.29.676.646.563a1.672 1.672 0 0 1 1.006.047c.027-.058.055-.117.076-.176-.06-.17-.18-.33-.18-.502.001-.124.062-.24.12-.36a3.137 3.137 0 0 0-.387-.054 2.702 2.702 0 0 0-1.738-.55v-.007zm13.998 0a2.708 2.708 0 0 0-1.78.772c-.057.01-.115.011-.171.017a2.564 2.564 0 0 0-.471.145c.002.015.012.028.012.043-.001.17-.122.326-.182.494.064.18.188.351.184.533 0 .016-.01.031-.01.047a1.681 1.681 0 0 1 1.812-.072.5.5 0 1 0 .506-.863c-.053-.031-.108-.055-.162-.082a1.74 1.74 0 0 1 .736 0 .502.498 60.002 0 0 .631.56 1.693 1.693 0 0 1 1.496.313c-.69.94-1.09 1.784-1.24 2.56h-1.894c.303.32.599.637.904 1 .264.314.52.646.768 1h.398c.179.465.435.894.734 1.29 1.118 1.472 2.732 2.664 3.35 4.382.002.01.004.01.006.016 1.038 2.583-.014 5.884-2.363 7.35l-.014.009c-1.199.797-2.69 1.065-4.115.865a9.398 9.398 0 0 1-.729.504c-.152.1-.31.187-.467.278 1.946.58 4.133.33 5.86-.815 2.789-1.745 3.982-5.496 2.757-8.555-.751-2.076-2.513-3.352-3.49-4.638a4.782 4.782 0 0 1-.459-.733c.433-.195.357-.961-.23-.953a.5.5 0 1 0 .013-1c.149-.587.477-1.27 1.11-2.103.008-.01.006-.022.014-.032a.502.498 60.002 0 0 .164-.767 2.736 2.736 0 0 0-1.284-.895 2.712 2.712 0 0 0-.66-.123 2.708 2.708 0 0 0-1.734-.547zm-9.535 2.471h4.855c.211.436.465.853.762 1.242 1.44 1.886 3.574 3.45 4.402 5.737a.5.5 0 0 0 .006.02c1.386 3.427-.011 7.782-3.152 9.73a.5.5 0 0 0-.012.01c-3.031 2.002-7.465 1.563-10.014-1.042a.5.5 0 0 0-.01-.01c-2.684-2.594-2.89-7.407-.96-10.357.993-1.518 2.092-2.419 3.01-3.514A6.765 6.765 0 0 0 21.43 18v-.002zm.773 6.84c-.385 0-.77.146-1.06.437a1.514 1.514 0 0 0 0 2.127c.581.584 1.539.584 2.12 0a1.514 1.514 0 0 0 0-2.127 1.493 1.493 0 0 0-1.06-.437zm4.776 0a.5.5 0 0 0-.344.152l-5.977 5.994a.5.5 0 1 0 .707.707l5.979-5.996a.5.5 0 0 0-.365-.857zm-4.776.994c.127 0 .254.05.354.15.2.201.2.51 0 .711-.2.201-.507.201-.707 0-.2-.2-.2-.51 0-.71.1-.101.226-.151.353-.151zm3.793 3.01c-.385 0-.77.146-1.06.437a1.516 1.516 0 0 0 0 2.127c.581.584 1.539.582 2.12 0a1.514 1.514 0 0 0 0-2.127 1.493 1.493 0 0 0-1.06-.437zm0 .994c.127 0 .255.05.356.15.2.201.2.51 0 .711-.2.201-.511.202-.711 0-.2-.2-.197-.51.002-.71.1-.101.226-.151.353-.151z" color="#000" font-family="sans-serif" font-weight="400" overflow="visible" style="line-height:normal;text-indent:0;text-align:start;text-decoration-line:none;text-decoration-style:solid;text-decoration-color:#000;text-transform:none;block-progression:tb;isolation:auto;mix-blend-mode:normal" fill="#d8a353" class="color000000 svgShape"></path>
</svg>
